PathFileType	4	(X/Y/Z)	RBDS019\RBDS019runT35.trc
DataRate	CameraRate	NumFrames	NumMarkers	Units	OrigDataRate	OrigDataStartFrame	OrigNumFrames
150.000000	150.000000	6	33	mm	150.000000	3937	4500
Frame#	Time	L.ASIS			L.Heel.Bottom			L.Heel.Lateral			L.Heel.Top			L.Iliac.Crest			L.MT1			L.MT5			L.PSIS			L.Shank.Bottom.Lateral			L.Shank.Bottom.Medial			L.Shank.Top.Lateral			L.Shank.Top.Medial			L.Thigh.Bottom.Lateral			L.Thigh.Bottom.Medial			L.Thigh.Top.Lateral			L.Thigh.Top.Medial			R.ASIS			R.ASY			R.Heel.Bottom			R.Heel.Lateral			R.Heel.Top			R.Iliac.Crest			R.MT1			R.MT5			R.PSIS			R.Shank.Bottom.Lateral			R.Shank.Bottom.Medial			R.Shank.Top.Lateral			R.Shank.Top.Medial			R.Thigh.Bottom.Lateral			R.Thigh.Bottom.Medial			R.Thigh.Top.Lateral			R.Thigh.Top.Medial			
		X1	Y1	Z1	X2	Y2	Z2	X3	Y3	Z3	X4	Y4	Z4	X5	Y5	Z5	X6	Y6	Z6	X7	Y7	Z7	X8	Y8	Z8	X9	Y9	Z9	X10	Y10	Z10	X11	Y11	Z11	X12	Y12	Z12	X13	Y13	Z13	X14	Y14	Z14	X15	Y15	Z15	X16	Y16	Z16	X17	Y17	Z17	X18	Y18	Z18	X19	Y19	Z19	X20	Y20	Z20	X21	Y21	Z21	X22	Y22	Z22	X23	Y23	Z23	X24	Y24	Z24	X25	Y25	Z25	X26	Y26	Z26	X27	Y27	Z27	X28	Y28	Z28	X29	Y29	Z29	X30	Y30	Z30	X31	Y31	Z31	X32	Y32	Z32	X33	Y33	Z33	

3938	26.24666666666667	2338.952935326101	883.4731238262475	951.1119770686971	1964.586568902592	580.0472787794014	1019.103167532491	1974.421164562752	545.0370874348558	976.8192625028299	2007.380326143539	558.2791704547088	1020.046527186728	2290.134588457668	941.5439122902156	899.6218585288321	1922.809668564071	379.7317684521756	1057.086137532335	1924.38501194647	409.4241192113071	953.8788777571356	2163.461676963798	920.3530799119542	973.4817314276498	2083.711248915894	487.2880954692025	961.5685078185764	2089.67752644672	521.1165250436935	999.1778474863549	2163.386739245617	483.5921757023493	947.841054740714	2174.027165997019	515.81252001577	988.5075447383052	2346.970620126679	518.8223979523862	908.4610962929465	2283.963346699802	503.8508418218407	942.5618452056083	2311.542125488946	620.392532038763	889.1702595585891	2251.690339988259	606.41773606544	922.6181634973965	2293.870262647734	921.9744178351178	1181.066459792217	-157345219893.0153	103963792749.9294	-292554984976.2039	2072.572762883897	35.38384210562488	1084.785557021432	2101.350001284274	49.01042552091948	1124.737550066117	2085.971228170687	79.06437187299041	1083.930619383795	2228.517677698271	967.3069927979936	1192.515764669388	2270.659047736052	48.52030491950907	1047.769583288537	2242.746209294119	32.50708627268711	1152.612228731434	2147.048972429986	939.457950355702	1068.610110761825	2179.981065853495	145.035091937226	1147.067734371775	2140.551820031096	168.2695950274786	1114.62139636108	2199.898938148947	219.6211743425811	1173.579458084455	2163.460939108237	241.309889850574	1139.271925667842	2276.87649458261	536.2292301748829	1217.309481727202	2227.525565135865	525.8743182523025	1166.689794013567	2242.799667748428	640.5799081486197	1229.75306286426	2192.735156136813	628.8176216779972	1184.682788566315	
3939	26.25333333333333	2336.852490964824	886.1498592227659	949.5248389017626	1972.537977175401	569.031408702866	1012.970544905332	1984.54317365831	533.1682445500981	971.8619738386201	2016.433892348409	549.680448726242	1014.851943324962	2285.803409680617	944.2748714040472	898.6847721981396	1941.467257945999	368.0082351988736	1057.829057226946	1942.142655229316	394.1637592908324	953.2285143039142	2161.589815335428	922.3468195601829	975.0110102485139	2097.057094828518	480.3839085977422	959.218139348797	2101.190328126564	515.6120645154787	995.7015170376665	2176.787760032474	479.8898826539256	946.0800372656821	2185.610799570778	513.7694522109999	985.8449804786093	2359.457996067326	524.6083563002052	908.902618155811	2297.020242868292	506.6856383868247	942.5135828810322	2319.465986010219	624.4215297397438	889.4066668335209	2259.937540125405	607.582640883963	922.1243840120859	2293.846048998163	922.5684598948321	1180.367139813925	-157479329453.0287	104052400835.7057	-292804332653.3144	2049.02355611653	37.22986362863641	1084.805783744174	2077.90335772803	50.46368799554501	1124.830150717561	2062.775694835153	80.81951442779504	1084.142033967691	2227.824295927976	969.5710210845644	1192.444064317766	2246.827549053837	48.73179839271015	1047.845364714021	2218.843991497141	32.7781470294951	1152.3571296294	2146.193022840164	941.263114965232	1069.976161792209	2158.207735953967	146.2502738264794	1146.620592847275	2119.123316794607	170.1827966680717	1114.338503255671	2179.804529096335	220.4200552210096	1172.852929248959	2143.735562071174	242.766317189297	1138.667362246781	2264.912928551567	535.7576852219038	1215.822452799639	2214.813024923618	527.1864333137173	1165.561079775109	2234.672805529407	641.3663080565599	1228.330635743543	2183.931213136047	631.436066704617	1183.548892333517	
3940	26.26	2335.041282883724	889.6137165610105	947.9327425677153	1979.84158573463	556.2489083387497	1007.79924272181	1994.202880993113	520.1040178180971	967.6194172176027	2024.806169301901	539.653802040018	1010.360232389995	2282.313994700356	947.8482227104615	898.1457255067361	1960.637287642721	354.9122563188407	1058.170818084604	1960.350586874483	378.2169101499875	952.4774973460683	2159.975987862887	924.9857500177308	976.9312063189577	2109.799379810485	472.892146939738	957.1283844746495	2111.820995826225	509.4727108438249	992.4295722803937	2189.416181117847	476.1953303130499	944.3870161184369	2196.123626582779	511.7077221984537	983.1667490736379	2371.491005874044	531.6142399120864	909.2692030663616	2309.905148215853	510.8256568927695	942.6985361079908	2327.043706263488	629.5047083954531	889.6771398734192	2268.111360353167	609.8791875941765	921.9334268068324	2294.255281475121	923.1590081058241	1179.656634911828	-157613515194.8532	104141059254.162	-293053821971.2758	2025.516701547658	39.74231760131737	1084.760111285765	2054.551683694361	52.41848058493691	1124.859358584044	2039.805661964912	83.18695144916519	1084.315863727397	2227.937978690945	972.0199472686413	1192.604469385963	2223.047443445999	48.69740468842858	1047.748854609113	2194.930967556022	32.95989740352567	1151.970653447501	2145.605958749139	943.4570797760394	1071.903056965112	2136.397897341577	147.9675626261647	1146.045656085729	2097.665741791227	172.4731879470198	1113.855232313483	2159.472931816497	221.7690895691355	1171.929328048291	2123.771884859734	244.6574820270389	1137.80729426045	2252.75832588235	535.8629062438239	1214.062355835271	2201.817104140999	529.1962730165003	1164.311718197449	2226.536940531338	642.628112193121	1226.755847114455	2175.046253724509	634.6547707800502	1182.404596019211	
3941	26.26666666666667	2333.561297054859	893.7405356100352	946.4405417302667	1986.788453625806	541.7584346595544	1003.710735868337	2003.645720401804	505.9489983927144	964.1710434653405	2032.733024705993	528.2168670366344	1006.714378246318	2279.758058038186	952.0906021991526	897.9906889103313	1980.475734233255	340.5977663943175	1058.009644930625	1979.168521188539	361.8278465017338	951.5312236015045	2158.668650641165	928.2085617492035	979.0903292371273	2122.08992629165	464.8470969016032	955.3564546757724	2121.742993104718	502.6447777596207	989.4664370606793	2201.362469103971	472.4678730281133	942.8100460964536	2205.669635280134	509.4984327562057	980.5487499850345	2382.926107673785	539.6683952128436	909.5590277246483	2322.422306220183	516.1635958556902	943.0971245629289	2334.199897565145	635.5042257344751	889.9617652579893	2276.099351459528	613.229796116999	922.0218168704793	2295.039985898281	923.7440612652983	1179.003891441471	-157747777140.1203	104229768019.5894	-293303452970.3062	2002.165155690081	43.06579136873965	1084.677941873724	2031.405066905493	55.00468705016276	1124.849662914989	2017.187815596377	86.28907942098427	1084.479541473858	2228.872096083728	974.4927812544792	1192.991644225604	2199.36455900629	48.45583526718985	1047.503536863547	2171.064637549185	33.09332566029635	1151.485928102983	2145.320698654749	946.0262913474288	1074.240905240892	2114.691560784463	150.3163668213028	1145.403111830495	2076.324900954457	175.2797275307257	1113.21625978397	2139.062211435532	223.807265389819	1170.874328424481	2103.732978975405	247.1300284496939	1136.743490042296	2240.588461116025	536.6472011195267	1212.117565643247	2188.785845973143	532.0039650575527	1162.985544703855	2218.521709741779	644.4118508821514	1225.111672308953	2166.265851955775	638.513649876443	1181.295865154791	
3942	26.27333333333333	2332.447772171002	898.4236462961734	945.1554859269374	1993.704282763853	525.6539686653687	1000.755361304479	2013.132826418178	490.8129905221873	961.5504566729296	2040.48713386197	515.4158380942498	1003.999950415531	2278.143716886526	956.8546450446887	898.1756880251185	2001.144624147879	325.2549348050135	1057.266663413128	1998.734938321524	345.226936238089	950.3086480310566	2157.712435558546	931.9678272057109	981.340164353554	2134.114637215087	456.2911918611184	953.9368951110861	2131.172214533175	495.0850085733943	986.8960822418624	2212.752991034236	468.6615230679868	941.3946681218531	2214.399134250496	507.0088769810935	978.0729181546733	2393.642646867042	548.5780175427	909.7840759769322	2334.389888265092	522.5668023691896	943.6936273877661	2340.877693779277	642.2667106818877	890.2397567089122	2283.793550026157	617.5355449695318	922.3492608876529	2296.139599031036	924.3519518499993	1178.46702501826	-157882115310.4615	104318527146.2796	-293553225690.6234	1979.106037028263	47.31768228552655	1084.597367478974	2008.591305726659	58.32935792405949	1124.835151319458	1995.064936709509	90.21865077872991	1084.668189830291	2230.62014992014	976.8955858690581	1193.571517893932	2175.832054969097	48.05194055266843	1047.152625339111	2147.31519662871	33.22111844863883	1150.949717066132	2145.379738986665	948.9743158546818	1076.828438759539	2093.234772894445	153.3890725792592	1144.761406537965	2055.249763703285	178.6982744482023	1112.479245506413	2118.730411111183	226.634176396784	1169.7595994299	2083.779909269496	250.2850115033205	1135.537012636524	2228.531280711896	538.1975414703929	1210.063003086061	2175.923293840172	535.7024118698006	1161.606058097352	2210.735734439444	646.7599614141815	1223.468375590758	2157.75845273598	643.0573020554471	1180.247521915369	
3943	26.28	2331.7260281743	903.576041130614	944.1752450119111	2000.927052072474	508.0604112102768	998.9115845264171	2022.923337797877	474.8058167939237	959.7459124230185	2048.358572853253	501.3238292246264	1002.239973450359	2277.405189273553	962.0267945564185	898.633682747239	2022.797981550516	309.1052529843292	1055.892261748975	2019.15698050008	328.6219684589449	948.7511822669759	2157.14448546094	936.2234296694803	983.5495703223111	2146.075266214134	447.2753289323016	952.8793903319573	2140.349349314743	486.7675423269217	984.7759581406652	2223.735486852739	464.7296082544198	940.1796702450889	2222.496144417607	504.1128350738748	975.8212106455618	2403.546378327285	558.1370711716586	909.9689440957993	2345.647924762878	529.8793852690064	944.4761202976666	2347.037644965441	649.6294184008049	890.4913559950646	2291.094101402069	622.6771246901093	922.8619860634391	2297.499334841102	925.0289263678584	1178.086201195911	-158016529727.5087	104407336648.5237	-293803140172.4454	1956.49381988623	52.58388491119045	1084.560066082721	1986.250265104113	62.47338068930316	1124.854373004201	1973.590512255468	95.03540995885635	1084.918240001819	2233.165337410205	979.2043365450099	1194.284181908533	2152.510500445364	47.53071471546991	1046.752326288212	2123.76201128991	33.38630146143969	1150.417316122168	2145.829172828393	952.3124104328017	1079.510284745698	2072.176644783267	157.2327031848534	1144.188101769471	2034.588658220822	182.7746185722724	1111.706811936641	2098.632862214478	230.3020920928683	1168.654468377267	2064.068175941326	254.1714592009706	1134.251016208632	2216.666299995085	540.5791917488785	1207.958216267878	2163.384260437625	540.3647107138125	1160.177489092182	2203.260135384134	649.7056197137072	1221.879486204903	2149.666258174531	648.3242463980262	1179.261522500781	
